<?xml version="1.0" standalone="no"?>
<!DOCTYPE svg PUBLIC "-//W3C//DTD SVG 20010904//EN"
 "http://www.w3.org/TR/2001/REC-SVG-20010904/DTD/svg10.dtd">
<svg version="1.0" xmlns="http://www.w3.org/2000/svg"
 width="269.000000pt" height="268.000000pt" viewBox="0 0 269.000000 268.000000"
 preserveAspectRatio="xMidYMid meet">

<g transform="translate(0.000000,268.000000) scale(0.100000,-0.100000)" stroke="none">
<path d="M930 2171 c-212 -64 -405 -124 -430 -132 -42 -15 -47 -20 -91 -110
-61 -122 -263 -582 -279 -635 -9 -30 -9 -46 -1 -62 16 -30 153 -137 626 -488
530 -392 561 -414 596 -414 33 0 102 46 399 265 475 350 757 564 798 604 39
38 43 46 36 74 -16 77 -238 588 -304 704 l-30 52 -137 45 c-156 50 -576 176
-669 200 -34 9 -77 16 -95 15 -19 0 -207 -53 -419 -118z m795 -152 c132 -39
245 -74 252 -78 12 -6 -477 -298 -517 -308 l-23 -6 6 214 c5 219 10 260 30
254 7 -2 120 -36 252 -76z m-465 -159 c0 -155 -3 -230 -11 -230 -17 0 -493
283 -504 299 -2 5 12 13 33 20 334 105 450 140 465 141 16 0 17 -17 17 -230z
m-350 -232 l348 -202 7 -414 c4 -227 5 -416 1 -419 -3 -3 -32 11 -63 32 -77
51 -807 594 -857 637 l-39 34 68 155 c78 179 174 379 182 379 2 0 161 -91 353
-202z m1308 95 c52 -111 152 -338 152 -346 0 -3 -8 -3 -17 -1 -10 2 -171 31
-358 64 -187 33 -351 64 -364 68 -21 7 -5 19 130 99 234 138 383 223 395 223
6 0 34 -48 62 -107z m-398 -424 c357 -62 443 -79 453 -89 9 -7 -123 -110 -558
-434 -207 -153 -261 -190 -267 -177 -8 20 -10 688 -2 730 8 38 -39 42 374 -30z"/>
</g>
</svg>
