<?xml version="1.0" standalone="no"?>
<!DOCTYPE svg PUBLIC "-//W3C//DTD SVG 20010904//EN"
 "http://www.w3.org/TR/2001/REC-SVG-20010904/DTD/svg10.dtd">
<svg version="1.0" xmlns="http://www.w3.org/2000/svg"
 width="2480.000000pt" height="3508.000000pt" viewBox="0 0 2480.000000 3508.000000"
 preserveAspectRatio="xMidYMid meet">

<g transform="translate(0.000000,3508.000000) scale(0.100000,-0.100000)"
fill="#000000" stroke="none">
<path d="M12235 24666 c-55 -14 -226 -63 -380 -109 -154 -47 -1031 -311 -1949
-587 -948 -284 -1693 -513 -1726 -530 -31 -16 -79 -50 -105 -76 -74 -75 -59
-42 -1032 -2243 -341 -773 -520 -1188 -530 -1235 -30 -131 13 -273 112 -371
27 -28 379 -294 780 -591 402 -297 1054 -781 1450 -1074 1932 -1432 2636
-1954 2925 -2167 331 -245 416 -297 515 -313 119 -19 220 13 345 109 41 32
188 141 325 243 138 101 687 508 1220 903 534 395 1222 905 1530 1134 308 228
934 691 1390 1029 1037 768 987 729 1040 811 23 36 47 81 53 99 21 62 24 144
8 213 -9 40 -220 530 -529 1230 -973 2201 -958 2168 -1032 2243 -26 26 -73 60
-105 76 -32 16 -702 223 -1526 470 -808 243 -1701 512 -1984 597 -473 143
-522 156 -605 159 -69 3 -113 -2 -190 -20z m1807 -1271 c667 -200 1240 -372
1273 -383 l60 -18 -70 -41 c-38 -22 -180 -105 -315 -183 -962 -561 -2204
-1280 -2212 -1280 -7 0 -8 104 -5 313 4 171 6 685 7 1141 l0 828 25 -6 c13 -3
570 -170 1237 -371z m-2101 -672 c1 -566 2 -1075 3 -1133 2 -58 1 -108 -1
-112 -2 -5 -18 -1 -36 8 -26 14 -780 452 -2272 1319 -148 86 -274 160 -278
164 -4 4 484 155 1085 336 601 180 1179 354 1283 386 105 32 196 58 203 58 9
1 12 -211 13 -1026z m4393 -498 c74 -170 295 -670 490 -1110 194 -440 353
-801 352 -802 -2 -2 -142 23 -1696 302 -1914 344 -1990 358 -1990 365 1 3 110
68 243 144 133 77 352 204 487 282 135 79 632 368 1105 642 473 275 863 497
866 494 4 -4 68 -146 143 -317z m-6934 -200 c443 -257 888 -516 990 -575 102
-59 493 -286 870 -505 377 -219 686 -398 687 -399 1 -1 5 -904 9 -2006 l7
-2004 -26 17 c-15 9 -358 263 -764 564 -406 300 -1388 1028 -2183 1617 -1591
1178 -1606 1190 -1603 1203 1 5 218 499 483 1098 419 947 559 1265 641 1453
l19 44 32 -20 c18 -11 395 -230 838 -487z m3830 -1810 c228 -41 867 -155 1420
-255 553 -99 1257 -226 1565 -281 308 -55 570 -103 583 -107 20 -7 -13 -34
-265 -222 -235 -174 -1829 -1356 -3456 -2562 -169 -125 -310 -228 -313 -228
-5 0 -2 2303 4 3283 l2 457 23 -5 c12 -3 209 -39 437 -80z"/>
</g>
</svg>
