<?xml version="1.0" standalone="no"?>
<!DOCTYPE svg PUBLIC "-//W3C//DTD SVG 20010904//EN"
 "http://www.w3.org/TR/2001/REC-SVG-20010904/DTD/svg10.dtd">
<svg version="1.0" xmlns="http://www.w3.org/2000/svg"
 width="420.000000pt" height="594.000000pt" viewBox="0 0 420.000000 594.000000"
 preserveAspectRatio="xMidYMid meet">

<g transform="translate(0.000000,594.000000) scale(0.100000,-0.100000)"
fill="#000000" stroke="none">
<path d="M2050 4169 c-226 -67 -664 -200 -671 -205 -14 -8 -49 -80 -155 -321
-130 -295 -127 -285 -115 -315 6 -16 92 -86 238 -194 125 -92 332 -246 459
-340 261 -194 267 -198 298 -190 12 3 114 74 227 157 112 83 260 192 328 243
393 291 416 309 419 343 4 41 -241 598 -272 618 -22 14 -641 201 -691 209 -16
3 -46 0 -65 -5z m-30 -339 c0 -104 -3 -190 -6 -190 -12 0 -422 245 -418 249 4
5 401 128 417 130 4 1 7 -84 7 -189z m310 146 c80 -25 174 -53 209 -64 l63
-19 -143 -85 c-201 -119 -287 -168 -293 -168 -8 0 -8 242 0 319 4 33 9 61 13
61 3 0 71 -20 151 -44z m-590 -334 l275 -160 5 -331 c3 -182 4 -335 2 -340 -2
-5 -77 45 -166 112 -90 67 -263 196 -385 285 -122 90 -220 167 -218 170 2 4
46 103 97 220 52 117 99 211 105 208 5 -2 134 -76 285 -164z m1086 -17 l82
-186 -32 6 c-226 38 -577 103 -583 108 -3 4 431 256 442 256 6 1 47 -82 91
-184z m-377 -241 c141 -25 283 -50 316 -56 33 -6 63 -13 67 -17 6 -6 -98 -86
-457 -351 -99 -73 -188 -140 -197 -148 -17 -14 -18 1 -18 301 0 290 1 317 17
317 9 0 132 -21 272 -46z"/>
</g>
</svg>
